<svg width="1080" height="1080" viewBox="0 0 1080 1080" fill="none" xmlns="http://www.w3.org/2000/svg">
<rect width="1080" height="1080" fill="#F4D504"/>
<path fill-rule="evenodd" clip-rule="evenodd" d="M558.523 341.437C556.716 344.609 553.378 346.794 549.515 346.986C550.126 348.71 550.458 350.566 550.458 352.5C550.458 359.139 546.537 364.862 540.884 367.48L542.441 378.376C590.453 379.918 605.119 420.735 606.419 444.288C611.457 447.696 615.942 451.38 619.833 455.355C617.777 455.386 615.707 455.425 613.64 455.475C606.366 455.648 598.937 455.945 592.187 456.458L587.286 419.507C587.013 417.457 585.867 415.624 584.141 414.483C582.416 413.341 580.281 413.003 578.287 413.555C550.895 421.141 519.914 442.057 494.085 465.072C489.111 469.504 484.28 474.057 479.661 478.657L456.525 459.892C461.247 454.145 467.112 448.957 474.015 444.288C475.193 422.944 487.349 387.422 525.349 379.799L526.861 367.4C524.669 366.354 522.743 364.838 521.216 362.983L507.385 370.459C506.35 371.018 505.059 370.568 504.596 369.487L497.653 353.288C497.087 351.968 498.056 350.5 499.491 350.5H517.578C518.566 342.33 525.523 336 533.958 336C535.342 336 536.685 336.17 537.969 336.491C537.962 336.328 537.958 336.164 537.958 336C537.958 329.925 542.883 325 548.958 325C554.719 325 559.446 329.429 559.919 335.067C560.013 335.094 560.103 335.144 560.179 335.221L565.013 340.055C565.38 340.421 565.141 341.048 564.624 341.078L558.523 341.437ZM530.394 378.974C532.706 378.679 535.106 378.481 537.596 378.389L536.27 368.839C535.514 368.945 534.743 369 533.958 369C533.12 369 532.297 368.937 531.492 368.817L530.394 378.974ZM528.543 664.408V744.874C528.543 751.018 533.524 755.999 539.668 755.999C545.812 755.999 550.793 751.018 550.793 744.874V664.408H917.926L886.14 617.126L917.926 569.844H550.793V566.076H573.838C588.937 566.076 624.537 554.587 633.438 525.343C640.205 503.108 638.739 484.695 630.472 469.567C625.168 469.582 619.558 469.642 613.98 469.774C606.924 469.942 600.095 470.226 594.071 470.661L597.482 496.371C598.26 502.242 593.592 507.644 589.456 511.105C580.958 517.5 567.252 518.478 557.481 509.842C547.885 501.363 544.097 487.879 551.397 476.365C555.013 470.661 563.458 461.5 577.958 458.5L574.234 429.889C551.73 438.172 526.151 455.658 503.6 475.752C499.175 479.695 494.906 483.703 490.835 487.721L523.512 514.226C526.437 516.598 527.021 520.832 524.848 523.907L495.982 564.764C500.052 565.654 503.701 566.076 506.596 566.076H528.543V569.844H163L194.786 617.126L163 664.408H528.543ZM446.255 635.601C446.255 646.459 451.684 652.664 462.154 652.664C472.625 652.664 478.054 646.459 478.054 635.601V613.4H462.639V623.095H467.971V636.377C467.971 641.224 465.838 642.969 462.445 642.969C459.052 642.969 456.919 641.224 456.919 636.377V599.245C456.919 594.398 459.052 592.556 462.445 592.556C465.838 592.556 467.971 594.398 467.971 599.245V605.741H478.054V599.924C478.054 589.066 472.625 582.861 462.154 582.861C451.684 582.861 446.255 589.066 446.255 599.924V635.601ZM211.476 651.695V583.831H227.763C238.427 583.831 243.663 589.745 243.663 600.603V634.923C243.663 645.781 238.427 651.695 227.763 651.695H211.476ZM247.86 651.695L258.912 583.831H273.358L284.41 651.695H273.745L271.807 638.219V638.413H259.688L257.749 651.695H247.86ZM293.471 593.526V651.695H304.136V593.526H315.285V583.831H282.322V593.526H293.471ZM313.187 651.695L324.239 583.831H338.684L349.736 651.695H339.072L337.133 638.219V638.413H325.015L323.076 651.695H313.187ZM370.437 583.831V651.695H399.522V642H381.101V621.156H395.741V611.461H381.101V593.526H399.522V583.831H370.437ZM405.657 651.695V583.831H419.036L429.409 624.452H429.603V583.831H439.104V651.695H428.149L415.352 602.154H415.158V651.695H405.657ZM484.901 651.695V583.831H495.565V651.695H484.901ZM503.552 583.831V651.695H513.053V602.154H513.247L526.044 651.695H536.999V583.831H527.498V624.452H527.304L516.931 583.831H503.552ZM544.925 651.695V583.831H574.01V593.526H555.59V611.461H570.229V621.156H555.59V642H574.01V651.695H544.925ZM580.145 583.831V651.695H609.229V642H590.809V621.156H605.449V611.461H590.809V593.526H609.229V583.831H580.145ZM615.365 651.695V583.831H631.167C642.219 583.831 646.97 588.969 646.97 599.439V603.608C646.97 610.588 644.74 615.048 639.989 616.987V617.181C645.322 618.829 647.067 623.87 647.067 631.529V643.454C647.067 646.75 647.164 649.174 648.23 651.695H637.372L637.342 651.606C636.777 649.912 636.402 648.789 636.402 643.357V630.948C636.402 624.646 634.56 622.61 629.713 622.61H626.029V651.695H615.365ZM667.181 593.526H678.33V651.695H688.995V593.526H700.144V583.831H667.181V593.526ZM705.307 651.695V583.831H715.971V611.461H727.411V583.831H738.076V651.695H727.411V621.156H715.971V651.695H705.307ZM746.018 583.831V651.695H756.682V583.831H746.018ZM764.669 651.695V583.831H778.048L788.421 624.452H788.615V583.831H798.116V651.695H787.161L774.364 602.154H774.17V651.695H764.669ZM805.267 635.601C805.267 646.459 810.696 652.664 821.166 652.664C831.637 652.664 837.066 646.459 837.066 635.601V613.4H821.651V623.095H826.983V636.377C826.983 641.224 824.85 642.969 821.457 642.969C818.064 642.969 815.931 641.224 815.931 636.377V599.245C815.931 594.398 818.064 592.556 821.457 592.556C824.85 592.556 826.983 594.398 826.983 599.245V605.741H837.066V599.924C837.066 589.066 831.637 582.861 821.166 582.861C810.696 582.861 805.267 589.066 805.267 599.924V635.601ZM857.777 652.664C847.306 652.664 842.071 646.459 842.071 635.601V631.723H852.154V636.377C852.154 641.224 854.286 642.969 857.68 642.969C861.073 642.969 863.206 641.224 863.206 636.183C863.206 630.56 861.073 626.973 854.093 620.865C845.173 613.012 842.265 607.486 842.265 599.73C842.265 589.066 847.791 582.861 858.164 582.861C868.538 582.861 873.676 589.066 873.676 599.924V602.736H863.593V599.245C863.593 594.398 861.655 592.556 858.261 592.556C854.868 592.556 852.929 594.398 852.929 599.052C852.929 603.996 855.159 607.583 862.139 613.691C871.058 621.544 873.87 626.973 873.87 635.407C873.87 646.459 868.247 652.664 857.777 652.664ZM227.569 642H222.14V593.526H227.569C230.962 593.526 232.998 595.271 232.998 600.118V635.407C232.998 640.255 230.962 642 227.569 642ZM270.546 629.203H260.948L265.602 595.658H265.796L270.546 629.203ZM326.275 629.203H335.873L331.122 595.658H330.928L326.275 629.203ZM629.907 612.915H626.029V593.526H630.876C634.657 593.526 636.305 595.658 636.305 600.506V605.741C636.305 611.17 633.882 612.915 629.907 612.915ZM509.304 521.119L481.706 560.181C470.671 555.491 459.284 547.83 452.167 536.585C457.569 525.827 467.74 512.164 480.838 498.03L509.304 521.119ZM469.706 489C459.982 499.555 451.62 510.073 445.432 519.688C440.813 501.096 442.213 485.306 448.717 471.976L469.706 489ZM583.105 496.768C584.322 495 579.959 473 579.959 473C573.714 474.159 567.035 477.568 563.959 483.5C560.303 490.551 562.947 495.397 566.953 499.124C570.959 502.851 578.793 503.034 583.105 496.768Z" fill="black"/>
</svg>
